# xmcd
#
# Track frame offsets:
#	150
#	21393
#	35329
#	64052
#	82397
#	91440
#	108531
#	134210
#	147939
#	167852
#	180014
#	192797
#
# Disc length: 2950 seconds
#
# Revision: 0
# Processed by: cddbd v1.4PL0 Copyright (c) Steve Scherf et al.
# Submitted via: EasyCDDAExtractor 4.6.0.1
#
DISCID=ac0b840c
DTITLE=Daniel Mermet - Les Années Pierrot
DYEAR=2002
DGENRE=Conte
TTITLE0=Dans mon sac
TTITLE1=La Panhart jaune
TTITLE2=Il fait beau comme jamais
TTITLE3=Pierrot
TTITLE4=Ardèche
TTITLE5=La pompe
TTITLE6=Enfance
TTITLE7=Notre petit grand Soir
TTITLE8=On en a marre de bouffer àla table qui recule
TTITLE9=Peindre son lac
TTITLE10=Dernière fois
TTITLE11=De sa belle mort
EXTD=
EXTT0=
EXTT1=
EXTT2=
EXTT3=
EXTT4=
EXTT5=
EXTT6=
EXTT7=
EXTT8=
EXTT9=
EXTT10=
EXTT11=
PLAYORDER=
